<svg xmlns="http://www.w3.org/2000/svg" xmlns:xlink="http://www.w3.org/1999/xlink" width="1600" zoomAndPan="magnify" viewBox="0 0 1200 374.999991" height="500" preserveAspectRatio="xMidYMid meet" version="1.0"><defs><g/><clipPath id="b887f85aab"><path d="M 70.3125 27.566406 L 360.90625 27.566406 L 360.90625 318.160156 L 70.3125 318.160156 Z M 70.3125 27.566406 " clip-rule="nonzero"/></clipPath><clipPath id="56e87691aa"><path d="M 215.609375 27.566406 C 135.363281 27.566406 70.3125 92.621094 70.3125 172.863281 C 70.3125 253.109375 135.363281 318.160156 215.609375 318.160156 C 295.855469 318.160156 360.90625 253.109375 360.90625 172.863281 C 360.90625 92.621094 295.855469 27.566406 215.609375 27.566406 Z M 215.609375 27.566406 " clip-rule="nonzero"/></clipPath><clipPath id="8d0e6ed614"><path d="M 0.3125 0.566406 L 290.90625 0.566406 L 290.90625 291.160156 L 0.3125 291.160156 Z M 0.3125 0.566406 " clip-rule="nonzero"/></clipPath><clipPath id="f61c78fffb"><path d="M 145.609375 0.566406 C 65.363281 0.566406 0.3125 65.621094 0.3125 145.863281 C 0.3125 226.109375 65.363281 291.160156 145.609375 291.160156 C 225.855469 291.160156 290.90625 226.109375 290.90625 145.863281 C 290.90625 65.621094 225.855469 0.566406 145.609375 0.566406 Z M 145.609375 0.566406 " clip-rule="nonzero"/></clipPath><clipPath id="acbf1bd803"><rect x="0" width="291" y="0" height="292"/></clipPath><clipPath id="d6aa8ec6e8"><rect x="0" width="780" y="0" height="241"/></clipPath><clipPath id="7989ccbc22"><path d="M 61.453125 21.363281 L 366.703125 21.363281 L 366.703125 326.613281 L 61.453125 326.613281 Z M 61.453125 21.363281 " clip-rule="nonzero"/></clipPath><clipPath id="986a6137d6"><path d="M 214.148438 21.363281 C 129.816406 21.363281 61.453125 89.726562 61.453125 174.058594 C 61.453125 258.390625 129.816406 326.753906 214.148438 326.753906 C 298.476562 326.753906 366.84375 258.390625 366.84375 174.058594 C 366.84375 89.726562 298.476562 21.363281 214.148438 21.363281 Z M 214.148438 21.363281 " clip-rule="nonzero"/></clipPath><clipPath id="b9a9dee0ee"><path d="M 78.679688 39.757812 L 347.289062 39.757812 L 347.289062 308.367188 L 78.679688 308.367188 Z M 78.679688 39.757812 " clip-rule="nonzero"/></clipPath><clipPath id="bf77f39047"><path d="M 212.984375 39.757812 C 138.8125 39.757812 78.679688 99.886719 78.679688 174.0625 C 78.679688 248.238281 138.8125 308.367188 212.984375 308.367188 C 287.160156 308.367188 347.289062 248.238281 347.289062 174.0625 C 347.289062 99.886719 287.160156 39.757812 212.984375 39.757812 Z M 212.984375 39.757812 " clip-rule="nonzero"/></clipPath><clipPath id="e79788951a"><path d="M 0.679688 0.757812 L 269.289062 0.757812 L 269.289062 269.367188 L 0.679688 269.367188 Z M 0.679688 0.757812 " clip-rule="nonzero"/></clipPath><clipPath id="3f9c42a0fd"><path d="M 134.984375 0.757812 C 60.8125 0.757812 0.679688 60.886719 0.679688 135.0625 C 0.679688 209.238281 60.8125 269.367188 134.984375 269.367188 C 209.160156 269.367188 269.289062 209.238281 269.289062 135.0625 C 269.289062 60.886719 209.160156 0.757812 134.984375 0.757812 Z M 134.984375 0.757812 " clip-rule="nonzero"/></clipPath><clipPath id="ca568cf247"><rect x="0" width="270" y="0" height="270"/></clipPath><clipPath id="c4167f4e9f"><path d="M 188 150 L 284 150 L 284 216 L 188 216 Z M 188 150 " clip-rule="nonzero"/></clipPath><clipPath id="82836ad394"><path d="M 300.863281 198.289062 L 206.636719 233.074219 L 188.898438 185.019531 L 283.125 150.234375 Z M 300.863281 198.289062 " clip-rule="nonzero"/></clipPath><clipPath id="178365ff3d"><path d="M 253.796875 215.664062 L 188.992188 184.984375 L 283.125 150.234375 Z M 253.796875 215.664062 " clip-rule="nonzero"/></clipPath><clipPath id="15ff4350cc"><path d="M 0.878906 0 L 95.199219 0 L 95.199219 65.761719 L 0.878906 65.761719 Z M 0.878906 0 " clip-rule="nonzero"/></clipPath><clipPath id="a331724e99"><path d="M 112.863281 48.289062 L 18.636719 83.074219 L 0.898438 35.019531 L 95.125 0.234375 Z M 112.863281 48.289062 " clip-rule="nonzero"/></clipPath><clipPath id="3dcf332491"><path d="M 65.796875 65.664062 L 0.992188 34.984375 L 95.125 0.234375 Z M 65.796875 65.664062 " clip-rule="nonzero"/></clipPath><clipPath id="aaf2d25364"><rect x="0" width="96" y="0" height="66"/></clipPath><clipPath id="527f17b217"><path d="M 213 105 L 294 105 L 294 191 L 213 191 Z M 213 105 " clip-rule="nonzero"/></clipPath><clipPath id="8f04ea1f7f"><path d="M 189 119.71875 L 269.929688 92.058594 L 294.097656 162.769531 L 213.167969 190.429688 Z M 189 119.71875 " clip-rule="nonzero"/></clipPath><clipPath id="dbb5fb3637"><path d="M 229.40625 105.910156 L 293.976562 162.8125 L 213.167969 190.429688 Z M 229.40625 105.910156 " clip-rule="nonzero"/></clipPath><clipPath id="aa74b739cb"><path d="M 0.121094 0.839844 L 81 0.839844 L 81 85.558594 L 0.121094 85.558594 Z M 0.121094 0.839844 " clip-rule="nonzero"/></clipPath><clipPath id="8dda11270f"><path d="M -24 14.71875 L 56.929688 -12.941406 L 81.097656 57.769531 L 0.167969 85.429688 Z M -24 14.71875 " clip-rule="nonzero"/></clipPath><clipPath id="97b0b6d3f5"><path d="M 16.40625 0.910156 L 80.976562 57.8125 L 0.167969 85.429688 Z M 16.40625 0.910156 " clip-rule="nonzero"/></clipPath><clipPath id="bfeade49cc"><rect x="0" width="81" y="0" height="86"/></clipPath><clipPath id="2ab05fd168"><path d="M 176 67 L 256 67 L 256 149 L 176 149 Z M 176 67 " clip-rule="nonzero"/></clipPath><clipPath id="17741b9099"><path d="M 153.640625 80.382812 L 231.789062 53.671875 L 255.128906 121.953125 L 176.976562 148.664062 Z M 153.640625 80.382812 " clip-rule="nonzero"/></clipPath><clipPath id="031fff9409"><path d="M 192.65625 67.046875 L 255.011719 121.992188 L 176.976562 148.664062 Z M 192.65625 67.046875 " clip-rule="nonzero"/></clipPath><clipPath id="53912dcf59"><path d="M 0.878906 0 L 79.121094 0 L 79.121094 81.800781 L 0.878906 81.800781 Z M 0.878906 0 " clip-rule="nonzero"/></clipPath><clipPath id="6e7f1d040c"><path d="M -22.359375 13.382812 L 55.789062 -13.328125 L 79.128906 54.953125 L 0.976562 81.664062 Z M -22.359375 13.382812 " clip-rule="nonzero"/></clipPath><clipPath id="1f72ad5da8"><path d="M 16.65625 0.046875 L 79.011719 54.992188 L 0.976562 81.664062 Z M 16.65625 0.046875 " clip-rule="nonzero"/></clipPath><clipPath id="ff35afd31a"><rect x="0" width="80" y="0" height="82"/></clipPath><clipPath id="16127fe59a"><path d="M 173.289062 127.796875 L 255.011719 127.796875 L 255.011719 184.730469 L 173.289062 184.730469 Z M 173.289062 127.796875 " clip-rule="nonzero"/></clipPath><clipPath id="95afc3a591"><path d="M 0.289062 0.796875 L 82 0.796875 L 82 57.730469 L 0.289062 57.730469 Z M 0.289062 0.796875 " clip-rule="nonzero"/></clipPath><clipPath id="17a8589b18"><rect x="0" width="83" y="0" height="58"/></clipPath><clipPath id="31b7d6c677"><path d="M 229.613281 109 L 256 109 L 256 163 L 229.613281 163 Z M 229.613281 109 " clip-rule="nonzero"/></clipPath><clipPath id="9f78f7cad7"><path d="M 237 76.042969 L 280.613281 76.042969 L 280.613281 119 L 237 119 Z M 237 76.042969 " clip-rule="nonzero"/></clipPath></defs><g clip-path="url(#b887f85aab)"><g clip-path="url(#56e87691aa)"><g transform="matrix(1, 0, 0, 1, 70, 27)"><g clip-path="url(#acbf1bd803)"><g clip-path="url(#8d0e6ed614)"><g clip-path="url(#f61c78fffb)"><path fill="#ffffff" d="M 0.3125 0.566406 L 290.90625 0.566406 L 290.90625 291.160156 L 0.3125 291.160156 Z M 0.3125 0.566406 " fill-opacity="1" fill-rule="nonzero"/></g></g></g></g></g></g><g transform="matrix(1, 0, 0, 1, 360, 114)"><g clip-path="url(#d6aa8ec6e8)"><g fill="#165a9e" fill-opacity="1"><g transform="translate(0.409561, 192.177965)"><g><path d="M 11.90625 40.46875 L 11.90625 -106.90625 L 40.28125 -106.90625 L 40.28125 -89.671875 L 41.546875 -89.671875 C 43.023438 -92.703125 45.054688 -95.648438 47.640625 -98.515625 C 50.222656 -101.390625 53.53125 -103.765625 57.5625 -105.640625 C 61.601562 -107.515625 66.492188 -108.453125 72.234375 -108.453125 C 80.429688 -108.453125 87.835938 -106.335938 94.453125 -102.109375 C 101.078125 -97.878906 106.359375 -91.679688 110.296875 -83.515625 C 114.234375 -75.347656 116.203125 -65.296875 116.203125 -53.359375 C 116.203125 -41.609375 114.28125 -31.632812 110.4375 -23.4375 C 106.59375 -15.238281 101.347656 -8.972656 94.703125 -4.640625 C 88.054688 -0.316406 80.503906 1.84375 72.046875 1.84375 C 66.492188 1.84375 61.710938 0.925781 57.703125 -0.90625 C 53.703125 -2.75 50.394531 -5.09375 47.78125 -7.9375 C 45.164062 -10.78125 43.085938 -13.75 41.546875 -16.84375 L 40.765625 -16.84375 L 40.765625 40.46875 Z M 63.421875 -21.40625 C 68.460938 -21.40625 72.691406 -22.742188 76.109375 -25.421875 C 79.535156 -28.097656 82.132812 -31.835938 83.90625 -36.640625 C 85.675781 -41.453125 86.5625 -47.054688 86.5625 -53.453125 C 86.5625 -59.773438 85.675781 -65.320312 83.90625 -70.09375 C 82.132812 -74.875 79.535156 -78.585938 76.109375 -81.234375 C 72.691406 -83.890625 68.460938 -85.21875 63.421875 -85.21875 C 58.515625 -85.21875 54.300781 -83.910156 50.78125 -81.296875 C 47.269531 -78.679688 44.59375 -75 42.75 -70.25 C 40.90625 -65.507812 39.984375 -59.910156 39.984375 -53.453125 C 39.984375 -46.992188 40.921875 -41.375 42.796875 -36.59375 C 44.671875 -31.820312 47.363281 -28.097656 50.875 -25.421875 C 54.394531 -22.742188 58.578125 -21.40625 63.421875 -21.40625 Z M 63.421875 -21.40625 "/></g></g><g transform="translate(123.964062, 192.177965)"><g><path d="M 60.328125 2.125 C 49.421875 2.125 40.007812 -0.128906 32.09375 -4.640625 C 24.1875 -9.160156 18.085938 -15.550781 13.796875 -23.8125 C 9.503906 -32.082031 7.359375 -41.800781 7.359375 -52.96875 C 7.359375 -64.007812 9.488281 -73.675781 13.75 -81.96875 C 18.007812 -90.257812 24.007812 -96.742188 31.75 -101.421875 C 39.5 -106.109375 48.570312 -108.453125 58.96875 -108.453125 C 66.132812 -108.453125 72.785156 -107.289062 78.921875 -104.96875 C 85.054688 -102.644531 90.429688 -99.207031 95.046875 -94.65625 C 99.660156 -90.101562 103.238281 -84.421875 105.78125 -77.609375 C 108.332031 -70.796875 109.609375 -62.9375 109.609375 -54.03125 L 109.609375 -46 L 18.875 -46 L 18.875 -64.203125 L 95.578125 -64.203125 L 82.109375 -59.453125 C 82.109375 -65.003906 81.238281 -69.8125 79.5 -73.875 C 77.757812 -77.945312 75.191406 -81.097656 71.796875 -83.328125 C 68.410156 -85.554688 64.234375 -86.671875 59.265625 -86.671875 C 54.296875 -86.671875 50.066406 -85.539062 46.578125 -83.28125 C 43.085938 -81.019531 40.421875 -77.921875 38.578125 -73.984375 C 36.742188 -70.046875 35.828125 -65.523438 35.828125 -60.421875 L 35.828125 -47.640625 C 35.828125 -41.640625 36.859375 -36.539062 38.921875 -32.34375 C 40.992188 -28.144531 43.914062 -24.960938 47.6875 -22.796875 C 51.46875 -20.640625 55.875 -19.5625 60.90625 -19.5625 C 64.332031 -19.5625 67.445312 -20.0625 70.25 -21.0625 C 73.0625 -22.0625 75.453125 -23.515625 77.421875 -25.421875 C 79.390625 -27.328125 80.890625 -29.664062 81.921875 -32.4375 L 108.15625 -28.65625 C 106.476562 -22.457031 103.460938 -17.050781 99.109375 -12.4375 C 94.753906 -7.820312 89.300781 -4.238281 82.75 -1.6875 C 76.195312 0.851562 68.722656 2.125 60.328125 2.125 Z M 60.328125 2.125 "/></g></g><g transform="translate(240.546836, 192.177965)"><g><path d="M 40.765625 -61.390625 L 40.765625 0 L 11.90625 0 L 11.90625 -106.90625 L 39.40625 -106.90625 L 39.796875 -79.984375 L 37.375 -79.984375 C 40.28125 -89.023438 44.65625 -96.03125 50.5 -101 C 56.34375 -105.96875 63.847656 -108.453125 73.015625 -108.453125 C 80.429688 -108.453125 86.914062 -106.835938 92.46875 -103.609375 C 98.019531 -100.378906 102.3125 -95.726562 105.34375 -89.65625 C 108.382812 -83.59375 109.90625 -76.300781 109.90625 -67.78125 L 109.90625 0 L 81.046875 0 L 81.046875 -62.65625 C 81.046875 -69.425781 79.332031 -74.695312 75.90625 -78.46875 C 72.488281 -82.25 67.710938 -84.140625 61.578125 -84.140625 C 57.515625 -84.140625 53.914062 -83.253906 50.78125 -81.484375 C 47.65625 -79.710938 45.203125 -77.144531 43.421875 -73.78125 C 41.648438 -70.425781 40.765625 -66.296875 40.765625 -61.390625 Z M 40.765625 -61.390625 "/></g></g></g><g fill="#165a9e" fill-opacity="1"><g transform="translate(362.358404, 192.177965)"><g><path d="M 12.484375 0 L 12.484375 -144.28125 L 68.9375 -144.28125 C 79.851562 -144.28125 89.179688 -142.226562 96.921875 -138.125 C 104.671875 -134.03125 110.59375 -128.347656 114.6875 -121.078125 C 118.789062 -113.816406 120.84375 -105.410156 120.84375 -95.859375 C 120.84375 -86.304688 118.757812 -77.914062 114.59375 -70.6875 C 110.4375 -63.457031 104.453125 -57.804688 96.640625 -53.734375 C 88.828125 -49.671875 79.398438 -47.640625 68.359375 -47.640625 L 31.28125 -47.640625 L 31.28125 -71.75 L 64.390625 -71.75 C 70.203125 -71.75 75.0625 -72.765625 78.96875 -74.796875 C 82.875 -76.835938 85.796875 -79.664062 87.734375 -83.28125 C 89.671875 -86.894531 90.640625 -91.085938 90.640625 -95.859375 C 90.640625 -100.703125 89.671875 -104.898438 87.734375 -108.453125 C 85.796875 -112.003906 82.875 -114.78125 78.96875 -116.78125 C 75.0625 -118.78125 70.171875 -119.78125 64.296875 -119.78125 L 42.125 -119.78125 L 42.125 0 Z M 12.484375 0 "/></g></g><g transform="translate(490.173404, 192.177965)"><g><path d="M 40.765625 -144.28125 L 40.765625 0 L 11.90625 0 L 11.90625 -144.28125 Z M 40.765625 -144.28125 "/></g></g><g transform="translate(542.848677, 192.177965)"><g><path d="M 42.3125 2.03125 C 35.46875 2.03125 29.332031 0.835938 23.90625 -1.546875 C 18.488281 -3.929688 14.226562 -7.492188 11.125 -12.234375 C 8.03125 -16.984375 6.484375 -22.878906 6.484375 -29.921875 C 6.484375 -35.921875 7.582031 -40.921875 9.78125 -44.921875 C 11.976562 -48.929688 14.976562 -52.160156 18.78125 -54.609375 C 22.59375 -57.066406 26.9375 -58.921875 31.8125 -60.171875 C 36.6875 -61.429688 41.800781 -62.320312 47.15625 -62.84375 C 53.414062 -63.488281 58.445312 -64.082031 62.25 -64.625 C 66.0625 -65.175781 68.835938 -66.03125 70.578125 -67.1875 C 72.328125 -68.351562 73.203125 -70.101562 73.203125 -72.4375 L 73.203125 -72.921875 C 73.203125 -75.890625 72.539062 -78.421875 71.21875 -80.515625 C 69.894531 -82.609375 67.972656 -84.21875 65.453125 -85.34375 C 62.941406 -86.476562 59.878906 -87.046875 56.265625 -87.046875 C 52.578125 -87.046875 49.363281 -86.476562 46.625 -85.34375 C 43.882812 -84.21875 41.65625 -82.703125 39.9375 -80.796875 C 38.226562 -78.898438 37.019531 -76.757812 36.3125 -74.375 L 9.6875 -77.75 C 11.164062 -84.207031 14.003906 -89.726562 18.203125 -94.3125 C 22.398438 -98.894531 27.757812 -102.394531 34.28125 -104.8125 C 40.800781 -107.238281 48.222656 -108.453125 56.546875 -108.453125 C 62.617188 -108.453125 68.378906 -107.738281 73.828125 -106.3125 C 79.285156 -104.894531 84.144531 -102.703125 88.40625 -99.734375 C 92.664062 -96.765625 96.003906 -93.003906 98.421875 -88.453125 C 100.847656 -83.898438 102.0625 -78.460938 102.0625 -72.140625 L 102.0625 0 L 74.46875 0 L 74.46875 -14.90625 L 73.59375 -14.90625 C 71.851562 -11.550781 69.546875 -8.597656 66.671875 -6.046875 C 63.796875 -3.503906 60.359375 -1.519531 56.359375 -0.09375 C 52.359375 1.320312 47.675781 2.03125 42.3125 2.03125 Z M 50.453125 -18.203125 C 55.035156 -18.203125 59.035156 -19.101562 62.453125 -20.90625 C 65.878906 -22.71875 68.5625 -25.140625 70.5 -28.171875 C 72.4375 -31.210938 73.40625 -34.632812 73.40625 -38.4375 L 73.40625 -49.765625 C 72.5 -49.253906 71.238281 -48.738281 69.625 -48.21875 C 68.007812 -47.707031 66.164062 -47.253906 64.09375 -46.859375 C 62.03125 -46.472656 59.945312 -46.117188 57.84375 -45.796875 C 55.75 -45.472656 53.832031 -45.1875 52.09375 -44.9375 C 48.601562 -44.414062 45.503906 -43.585938 42.796875 -42.453125 C 40.085938 -41.328125 37.988281 -39.8125 36.5 -37.90625 C 35.019531 -36 34.28125 -33.628906 34.28125 -30.796875 C 34.28125 -28.078125 34.972656 -25.78125 36.359375 -23.90625 C 37.742188 -22.039062 39.644531 -20.625 42.0625 -19.65625 C 44.488281 -18.6875 47.285156 -18.203125 50.453125 -18.203125 Z M 50.453125 -18.203125 "/></g></g></g><g fill="#165a9e" fill-opacity="1"><g transform="translate(656.720242, 192.177965)"><g><path d="M 40.765625 -61.390625 L 40.765625 0 L 11.90625 0 L 11.90625 -106.90625 L 39.40625 -106.90625 L 39.796875 -79.984375 L 37.375 -79.984375 C 40.28125 -89.023438 44.65625 -96.03125 50.5 -101 C 56.34375 -105.96875 63.847656 -108.453125 73.015625 -108.453125 C 80.429688 -108.453125 86.914062 -106.835938 92.46875 -103.609375 C 98.019531 -100.378906 102.3125 -95.726562 105.34375 -89.65625 C 108.382812 -83.59375 109.90625 -76.300781 109.90625 -67.78125 L 109.90625 0 L 81.046875 0 L 81.046875 -62.65625 C 81.046875 -69.425781 79.332031 -74.695312 75.90625 -78.46875 C 72.488281 -82.25 67.710938 -84.140625 61.578125 -84.140625 C 57.515625 -84.140625 53.914062 -83.253906 50.78125 -81.484375 C 47.65625 -79.710938 45.203125 -77.144531 43.421875 -73.78125 C 41.648438 -70.425781 40.765625 -66.296875 40.765625 -61.390625 Z M 40.765625 -61.390625 "/></g></g></g></g></g><g clip-path="url(#7989ccbc22)"><g clip-path="url(#986a6137d6)"><path stroke-linecap="butt" transform="matrix(0.75, 0, 0, 0.75, 61.451444, 21.364095)" fill="none" stroke-linejoin="miter" d="M 203.596005 -0.00108457 C 91.153289 -0.00108457 0.00224138 91.149963 0.00224138 203.592679 C 0.00224138 316.035395 91.153289 407.186442 203.596005 407.186442 C 316.033512 407.186442 407.189768 316.035395 407.189768 203.592679 C 407.189768 91.149963 316.033512 -0.00108457 203.596005 -0.00108457 Z M 203.596005 -0.00108457 " stroke="#165a9e" stroke-width="26" stroke-opacity="1" stroke-miterlimit="4"/></g></g><g clip-path="url(#b9a9dee0ee)"><g clip-path="url(#bf77f39047)"><g transform="matrix(1, 0, 0, 1, 78, 39)"><g clip-path="url(#ca568cf247)"><g clip-path="url(#e79788951a)"><g clip-path="url(#3f9c42a0fd)"><path fill="#165a9e" d="M 0.679688 0.757812 L 269.289062 0.757812 L 269.289062 269.367188 L 0.679688 269.367188 Z M 0.679688 0.757812 " fill-opacity="1" fill-rule="nonzero"/></g></g></g></g></g></g><g clip-path="url(#c4167f4e9f)"><g clip-path="url(#82836ad394)"><g clip-path="url(#178365ff3d)"><g transform="matrix(1, 0, 0, 1, 188, 150)"><g clip-path="url(#aaf2d25364)"><g clip-path="url(#15ff4350cc)"><g clip-path="url(#a331724e99)"><g clip-path="url(#3dcf332491)"><path fill="#f08b21" d="M 112.863281 48.289062 L 18.636719 83.074219 L 0.898438 35.019531 L 95.125 0.234375 Z M 112.863281 48.289062 " fill-opacity="1" fill-rule="nonzero"/></g></g></g></g></g></g></g></g><g clip-path="url(#527f17b217)"><g clip-path="url(#8f04ea1f7f)"><g clip-path="url(#dbb5fb3637)"><g transform="matrix(1, 0, 0, 1, 213, 105)"><g clip-path="url(#bfeade49cc)"><g clip-path="url(#aa74b739cb)"><g clip-path="url(#8dda11270f)"><g clip-path="url(#97b0b6d3f5)"><path fill="#f08b21" d="M -24 14.71875 L 56.929688 -12.941406 L 81.097656 57.769531 L 0.167969 85.429688 Z M -24 14.71875 " fill-opacity="1" fill-rule="nonzero"/></g></g></g></g></g></g></g></g><g clip-path="url(#2ab05fd168)"><g clip-path="url(#17741b9099)"><g clip-path="url(#031fff9409)"><g transform="matrix(1, 0, 0, 1, 176, 67)"><g clip-path="url(#ff35afd31a)"><g clip-path="url(#53912dcf59)"><g clip-path="url(#6e7f1d040c)"><g clip-path="url(#1f72ad5da8)"><path fill="#f08b21" d="M -22.359375 13.382812 L 55.789062 -13.328125 L 79.128906 54.953125 L 0.976562 81.664062 Z M -22.359375 13.382812 " fill-opacity="1" fill-rule="nonzero"/></g></g></g></g></g></g></g></g><g clip-path="url(#16127fe59a)"><g transform="matrix(1, 0, 0, 1, 173, 127)"><g clip-path="url(#17a8589b18)"><g clip-path="url(#95afc3a591)"><path fill="#f08b21" d="M 0.289062 0.796875 L 81.902344 0.796875 L 81.902344 57.730469 L 0.289062 57.730469 Z M 0.289062 0.796875 " fill-opacity="1" fill-rule="nonzero"/></g></g></g></g><path stroke-linecap="round" transform="matrix(0.657722, 0.360419, -0.360419, 0.657722, 83.939277, 122.866998)" fill="none" stroke-linejoin="miter" d="M 7.499279 7.501691 L 364.542429 7.499533 " stroke="#ffffff" stroke-width="15" stroke-opacity="1" stroke-miterlimit="4"/><path stroke-linecap="round" transform="matrix(0.392031, -0.639384, 0.639384, 0.392031, 184.203226, 311.4412)" fill="none" stroke-linejoin="miter" d="M 7.499203 7.498397 L 341.80114 7.501197 " stroke="#ffffff" stroke-width="15" stroke-opacity="1" stroke-miterlimit="4"/><path stroke-linecap="round" transform="matrix(0.533189, 0.527456, -0.527456, 0.533189, 170.952968, 35.7588)" fill="none" stroke-linejoin="miter" d="M 7.50126 7.501021 L 330.642755 7.498091 " stroke="#ffffff" stroke-width="15" stroke-opacity="1" stroke-miterlimit="4"/><path stroke-linecap="round" transform="matrix(-0.124501, 0.739594, -0.739594, -0.124501, 194.542194, 61.695978)" fill="none" stroke-linejoin="miter" d="M 7.499007 7.498792 L 226.49589 7.499263 " stroke="#ffffff" stroke-width="15" stroke-opacity="1" stroke-miterlimit="4"/><path stroke-linecap="round" transform="matrix(-0.683424, -0.308921, 0.308921, -0.683424, 224.755284, 267.013782)" fill="none" stroke-linejoin="miter" d="M 7.501943 7.50042 L 134.206971 7.498707 " stroke="#ffffff" stroke-width="15" stroke-opacity="1" stroke-miterlimit="4"/><path stroke-linecap="round" transform="matrix(0.305504, -0.684958, 0.684958, 0.305504, 105.354178, 268.286702)" fill="none" stroke-linejoin="miter" d="M 7.498507 7.498633 L 74.200468 7.500341 " stroke="#ffffff" stroke-width="15" stroke-opacity="1" stroke-miterlimit="4"/><g clip-path="url(#31b7d6c677)"><path fill="#02427a" d="M 252.296875 109.03125 C 244.875 126.472656 237.226562 143.847656 229.960938 161.335938 C 229.609375 162.183594 231.417969 162.785156 231.828125 161.953125 C 240.214844 144.933594 248.089844 127.710938 255.695312 110.402344 C 254.546875 110.125 253.402344 109.671875 252.296875 109.03125 Z M 252.296875 109.03125 " fill-opacity="1" fill-rule="nonzero"/></g><g clip-path="url(#9f78f7cad7)"><path fill="#f08b21" d="M 280.222656 99.285156 C 280.402344 96.796875 280.050781 94.296875 279.230469 91.902344 C 277.644531 86.429688 274.050781 81.523438 268.992188 78.773438 C 265.382812 76.8125 261.253906 76.070312 257.195312 76.40625 C 255.273438 76.457031 253.382812 76.792969 251.582031 77.429688 C 250.40625 77.84375 249.285156 78.375 248.222656 79.019531 C 245.1875 80.621094 242.574219 82.933594 240.605469 85.785156 C 233.316406 96.332031 238.9375 108.101562 242.933594 112.40625 C 245.988281 115.703125 250.230469 117.769531 254.957031 118.390625 C 257.28125 118.695312 259.714844 118.652344 262.183594 118.238281 C 269.683594 116.972656 275.765625 112.554688 278.460938 106.417969 C 278.871094 105.480469 279.300781 104.023438 279.621094 102.847656 C 279.933594 101.683594 280.136719 100.492188 280.222656 99.289062 Z M 280.222656 99.285156 " fill-opacity="1" fill-rule="nonzero"/></g><path fill="#ffffff" d="M 260.15625 82.535156 C 259.890625 81.574219 258.9375 80.773438 257.890625 80.820312 C 257.175781 80.910156 256.574219 81.035156 255.894531 81.222656 C 250.972656 82.636719 247.160156 86.300781 244.050781 90.1875 C 242.890625 91.695312 245.09375 93.464844 246.375 92.085938 C 248.734375 89.621094 251.664062 87.605469 254.855469 86.449219 C 256.078125 85.957031 257.347656 85.691406 258.625 85.425781 C 259.828125 85.085938 260.53125 83.710938 260.15625 82.535156 Z M 260.15625 82.535156 " fill-opacity="1" fill-rule="nonzero"/></svg>